<svg xmlns="http://www.w3.org/2000/svg" xmlns:xlink="http://www.w3.org/1999/xlink" viewBox="0 0 114.39 131.49"><defs><style>.a{isolation:isolate;}.b,.c{fill:#58af3d;}.c{stroke:#fff;stroke-miterlimit:10;}.d{fill:#fff;}.e{opacity:0.3;fill:url(#a);}.e,.f{mix-blend-mode:overlay;}.f{opacity:0.5;}</style><linearGradient id="a" x1="1370.99" y1="713.28" x2="1456.7" y2="798.99" gradientTransform="translate(1471.06 821.87) rotate(180)" gradientUnits="userSpaceOnUse"><stop offset="0" stop-color="#fff" stop-opacity="0.1"/><stop offset="0.84" stop-color="#282726"/></linearGradient></defs><title>Asset 56</title><g class="a"><path class="b" d="M58.13,3.27a1.65,1.65,0,0,0-1.91,0c-3.8,2.24-7.63,4.43-11.46,6.63Q24.44,21.63,4.09,33.32a2.52,2.52,0,0,0-1.45,2.5q.06,29.93,0,59.86A2.42,2.42,0,0,0,4,98.09c5,2.82,9.94,5.69,14.9,8.56q18.65,10.77,37.3,21.57a1.7,1.7,0,0,0,1.92,0q11.78-6.84,23.58-13.64,14.3-8.26,28.62-16.5a2.32,2.32,0,0,0,1.37-2.31c0-10,0-19.92,0-29.88s0-19.84,0-29.77a3,3,0,0,0-1.78-3q-14.77-8.43-29.49-17Q69.31,9.74,58.13,3.27Z"/><path class="c" d="M113.89,98.46c-3.07,2-6.33,3.77-9.51,5.61q-11.82,6.87-23.68,13.67-11.17,6.44-22.35,12.9a2.07,2.07,0,0,1-2.33,0q-11.31-6.56-22.64-13.07L5.81,101.66c-1.39-.8-2.76-1.63-4.17-2.4A2,2,0,0,1,.5,97.33Q.53,65.66.5,34a1.89,1.89,0,0,1,1.08-1.83Q20.36,21.36,39.1,10.53c5.4-3.11,10.81-6.21,16.18-9.38A3.14,3.14,0,0,1,58.88,1Q78.4,12.39,98,23.63l15.92,9.17Zm-2.18-32.61c0-9.92,0-19.84.05-29.77a3,3,0,0,0-1.78-3q-14.78-8.43-29.49-17Q69.32,9.7,58.13,3.24a1.64,1.64,0,0,0-1.9,0c-3.81,2.24-7.64,4.43-11.46,6.63Q24.44,21.6,4.1,33.29a2.51,2.51,0,0,0-1.45,2.5q.06,29.93,0,59.86a2.43,2.43,0,0,0,1.4,2.42c5,2.81,9.94,5.68,14.89,8.55q18.66,10.77,37.31,21.57a1.7,1.7,0,0,0,1.92,0q11.77-6.84,23.58-13.64Q96,106.28,110.37,98a2.32,2.32,0,0,0,1.37-2.31C111.69,85.77,111.71,75.81,111.71,65.85Z"/><path class="d" d="M51.46,32.8H50.8a6.65,6.65,0,0,0-1.95.23,3.12,3.12,0,0,0-1.28.76,2.62,2.62,0,0,0-.67,1.12,5.33,5.33,0,0,0-.23,1.6v.59h4.49v1.54H46.67q0,4.28,0,7.93c0,2.44,0,3.73,0,3.87H44.63c0-.14,0-1.38,0-3.71s0-5,0-8.09H42.09V37.1h2.59v-.65A6.34,6.34,0,0,1,45,34.38a4.47,4.47,0,0,1,1.06-1.71,4.89,4.89,0,0,1,1.76-1.12,7.28,7.28,0,0,1,2.69-.44h.71Z"/><path class="d" d="M56,50.44H53.89c0-.1,0-1.39,0-3.86s0-4.51,0-6.13c0-1.05,0-2.37,0-4s0-3.39,0-5.38H56c0,1.36,0,2.92,0,4.7s0,3.28,0,4.51c0,2.66,0,5,0,7S56,50.34,56,50.44Z"/><path class="d" d="M72.22,37.64q-2.56,5.67-5.41,12t-3,6.79L62,55.79l2.73-5.65c-.07-.18-.62-1.46-1.65-3.85S60.75,41,59.26,37.72l2-.86c1,2.45,2,4.86,3,7.25l1.58,3.76h0q.08-.13,1.5-3.51t3.11-7.45Z"/><path class="d" d="M30.62,81.73l-.16,1.76h-.72a14.65,14.65,0,0,1-3.18-.32,10,10,0,0,1-2.65-1,6.61,6.61,0,0,1-2.49-2.31,5.93,5.93,0,0,1-.9-3.21,5.46,5.46,0,0,1,.82-2.9,6.72,6.72,0,0,1,2.14-2.17,9.29,9.29,0,0,1,2.84-1.17,14.29,14.29,0,0,1,3.42-.4h.54l.11,1.77H30a16.08,16.08,0,0,0-2.5.17,9.45,9.45,0,0,0-2,.59,4.47,4.47,0,0,0-2.07,1.66,4.29,4.29,0,0,0-.77,2.43,4.46,4.46,0,0,0,.72,2.59,4.69,4.69,0,0,0,1.91,1.61,7.57,7.57,0,0,0,2.08.65,14.73,14.73,0,0,0,2.45.2h.83Z"/><path class="d" d="M36.44,67.54H34.12V65.27h2.32Zm-.12,15.9H34.24c0-.14,0-1,0-2.6s0-2.9,0-3.94,0-1.9,0-3,0-2.36,0-3.82h2.08c0,1.27,0,2.45,0,3.55s0,2.09,0,2.95c0,2.05,0,3.69,0,4.93S36.32,83.41,36.32,83.44Z"/><path class="d" d="M49,71.66a18.91,18.91,0,0,0-2.22.72c-1,.37-2.15.86-3.45,1.48,0,.09,0,.54,0,1.32s0,1.52,0,2.2c0,1,0,2.26,0,3.69s0,2.21,0,2.37H41.28c0-.15,0-.64,0-1.48s0-2.26,0-4.28c0-.82,0-2,0-3.43s0-2.85,0-4.15h2v2a31,31,0,0,1,2.94-1.47,17.84,17.84,0,0,1,2.32-.84Z"/><path class="d" d="M60.46,81.73l-.16,1.76h-.73a14.49,14.49,0,0,1-3.17-.32,9.88,9.88,0,0,1-2.65-1,6.47,6.47,0,0,1-2.49-2.31,5.93,5.93,0,0,1-.9-3.21,5.37,5.37,0,0,1,.82-2.9,6.59,6.59,0,0,1,2.13-2.17,9.29,9.29,0,0,1,2.84-1.17,14.42,14.42,0,0,1,3.42-.4h.54l.11,1.77h-.41a16.17,16.17,0,0,0-2.5.17,9.45,9.45,0,0,0-2,.59,4.47,4.47,0,0,0-2.07,1.66,4.28,4.28,0,0,0-.76,2.43,4.46,4.46,0,0,0,.72,2.59,4.66,4.66,0,0,0,1.9,1.61,7.68,7.68,0,0,0,2.08.65,14.94,14.94,0,0,0,2.46.2h.83Z"/><path class="d" d="M74.79,83.44h-2V81.91h0a18.15,18.15,0,0,1-2.3,1.24,6.35,6.35,0,0,1-2.71.64A3.76,3.76,0,0,1,64.9,82.7a4.2,4.2,0,0,1-1-3c0-.7,0-1.54,0-2.51s0-1.68,0-2.12c0-.8,0-1.78,0-3s0-1.83,0-2h2.08c0,.11,0,.75,0,1.9s0,2.07,0,2.75,0,1.37,0,2.27,0,1.55,0,1.93a4.2,4.2,0,0,0,.54,2.28A1.91,1.91,0,0,0,68.1,82a6.32,6.32,0,0,0,2.58-.63,11.59,11.59,0,0,0,2.06-1.11c0-.1,0-.59,0-1.46s0-1.94,0-3.23c0-.92,0-2,0-3.32s0-2,0-2.1h2.08c0,.15,0,.64,0,1.48s0,2.27,0,4.29c0,1.14,0,2.13,0,3S74.77,81.24,74.79,83.44Z"/><path class="d" d="M82,67.54H79.64V65.27H82Zm-.12,15.9H79.76c0-.14,0-1,0-2.6s0-2.9,0-3.94,0-1.9,0-3,0-2.36,0-3.82h2.08c0,1.27,0,2.45,0,3.55s0,2.09,0,2.95c0,2.05,0,3.69,0,4.93S81.84,83.41,81.84,83.44Z"/><path class="d" d="M94.05,81.81l-.24,1.67-.45,0h-.63a6.39,6.39,0,0,1-4.09-1.13,4.2,4.2,0,0,1-1.38-3.46c0-1,0-2,0-3.14s0-2.5,0-4.15H85.08V70.1h2.34V67h1.91V70.1h4.72v1.54H89.33c0,.19,0,.74,0,1.65s0,1.59,0,2v3.27a3,3,0,0,0,.92,2.47,4.43,4.43,0,0,0,2.85.76h1Z"/><path class="e" d="M56.26,128.22a1.67,1.67,0,0,0,1.91,0c3.8-2.23,7.63-4.42,11.46-6.62Q90,109.87,110.29,98.16a2.5,2.5,0,0,0,1.46-2.49q-.06-29.92,0-59.86a2.42,2.42,0,0,0-1.4-2.42c-5-2.81-9.94-5.69-14.9-8.55Q76.8,14.05,58.15,3.26a1.7,1.7,0,0,0-1.92,0Q44.44,10.12,32.65,16.92,18.36,25.17,4,33.41a2.34,2.34,0,0,0-1.37,2.32c0,10,0,19.92,0,29.88s0,19.84,0,29.76a3,3,0,0,0,1.78,3c9.85,5.62,19.66,11.3,29.49,17Q45.09,121.76,56.26,128.22Z"/><g class="f"><path class="d" d="M24.05,58.89h2.62c.25-.81.51-1.62.74-2.44a.68.68,0,0,0-.17-.54,7.57,7.57,0,0,1-1.92-4.52,3.38,3.38,0,0,1,1.52-3A26.94,26.94,0,0,1,29.28,47a1.35,1.35,0,0,0,.62-.7A4.77,4.77,0,0,1,33,42.93a23.8,23.8,0,0,1,6.21-2.24,10.6,10.6,0,0,1,4-.25.88.88,0,0,0,.67-.12c1-.74,2.11-.43,3.18-.48.34,0,.68.42,1,.45,1.08.11,2.18.06,3.26.18s2.43.39,3.65.59a4.92,4.92,0,0,0,.77.11,27,27,0,0,0,6.21-.44,12.29,12.29,0,0,1,2.91-.17,7,7,0,0,0,2.9-.44,4,4,0,0,1,2.8.09,3.92,3.92,0,0,0,1.51.21,13.94,13.94,0,0,1,7,1.23c1.26.56,2.53,1.09,3.75,1.73a3.86,3.86,0,0,1,2,2.58,1.65,1.65,0,0,0,.64.78,4.51,4.51,0,0,0,1.07.55A5,5,0,0,1,89,50a2.94,2.94,0,0,1,.19,1.87,7.91,7.91,0,0,1-1.85,4c.35.8.68,1.59,1,2.37,0,.12.16.28.25.28a16.49,16.49,0,0,0,1.86,0c.12,0,.28-.22.32-.37.18-.58.24-1.21.89-1.54.14-.07.16-.37.27-.55a20.1,20.1,0,0,1,1.25-2,2.08,2.08,0,0,1,2.59-.55c2,.8,4.08,1.66,6.12,2.52a2.5,2.5,0,0,1,1.61,2.32,4.13,4.13,0,0,0,1,2.31c1.85,2.62,3.72,5.29,4.22,8.54a26.3,26.3,0,0,1,.06,5.47,19.15,19.15,0,0,1-1.71,6.22,16.33,16.33,0,0,1-4.78,6.05,19.26,19.26,0,0,1-4.16,2.84,15.5,15.5,0,0,1-5.82,1.53,8.37,8.37,0,0,1-4.36-.76,5.36,5.36,0,0,1-1.65-1.1,21.91,21.91,0,0,0-2.88-2.48c-.55-.42-.94-1.06-1.46-1.53a10.31,10.31,0,0,0-1.3-.84,4.71,4.71,0,0,1-2.18-2.16c0-.09-.12-.18-.11-.26.27-1.36-.73-2.4-1-3.64a3.9,3.9,0,0,0-1-1.62,1,1,0,0,1-.16-1.27,12.63,12.63,0,0,0,.83-2,6.8,6.8,0,0,0-1.09,1,8.87,8.87,0,0,1-3.35,2.7,1.54,1.54,0,0,0-.91,1.19,10.27,10.27,0,0,1-.64,2.48,13,13,0,0,1-1.72,2.74,10.86,10.86,0,0,1-2.25,2.14,8.22,8.22,0,0,1-4.35,1.57c-1.49,0-3-.18-4.48-.21-.89,0-1.79.11-2.69.17a12.24,12.24,0,0,1-7.49-1.47,8.18,8.18,0,0,1-3.54-3.73c-.44-1.07-.72-2.2-1.06-3.3A2.62,2.62,0,0,0,42,77a6,6,0,0,1-3.13-2.56,1,1,0,0,0-.19-.21,5.44,5.44,0,0,0-.46-.34c.29.66.47,1.18.73,1.65a1.62,1.62,0,0,1-.13,1.79c-.43.75-.77,1.55-1.15,2.34l0,.06a3.23,3.23,0,0,0-.55,2.58c.1.37-.39,1-.77,1.36a5.54,5.54,0,0,1-1.67,1.07,3,3,0,0,0-1.45,1.19,6.84,6.84,0,0,1-2.5,2.15,15.42,15.42,0,0,0-2,1.73A7,7,0,0,1,24,91.54a13.07,13.07,0,0,1-2,.1,18.51,18.51,0,0,1-6.22-1.82,19.46,19.46,0,0,1-6.35-5.49A18.12,18.12,0,0,1,7,80a28.38,28.38,0,0,1-1.11-4.38,23.8,23.8,0,0,1-.38-2.78,6.12,6.12,0,0,1,0-1.42A20.52,20.52,0,0,1,7,66.15a25.6,25.6,0,0,1,1.82-3.27C9.3,62,10,61.3,10.5,60.45a17.66,17.66,0,0,0,.88-2c.13-.29.26-.66.5-.8,2-1.2,4-2.43,6-3.48a3.33,3.33,0,0,1,3.69.43A1.35,1.35,0,0,1,22,55C22.68,56.26,23.35,57.56,24.05,58.89Zm40,4.08-1.5-1,.34,1.92a9.44,9.44,0,0,1-.87-1c-.14-.14-.54-.26-.62-.18A13,13,0,0,0,60.45,64c.39.32.75.85,1.11.86s.95-.4,1.42-.63c1.27,1,1.27,1,2.47.37l-1.3-1.51h2.62a8.76,8.76,0,0,1-1.32-1.61A5.24,5.24,0,0,0,64,59.5c-.78-.65-.88-.68-1.85-.07l.77,1.44ZM48.6,57.76l-2.93.29,0,.24c.31.35.62.7.92,1.06.83,1,1,1.08,2.17.53a1.92,1.92,0,0,1,2.33.5c-.88,1-2.27,1.5-2.57,3.11,1-.73,1.15.11,1.61.61a10.85,10.85,0,0,0,1.79,1.34.23.23,0,0,0,.2,0L54,64.7c-.11-.35-.18-.6-.26-.85-.33-1-.37-1.1-1.29-.57s-1.73.07-2.58-.11l0-.2,3.8-2.14c-.7-.8-1.4-1.63-2.13-2.42a1,1,0,0,1,0-1.59,4.07,4.07,0,0,0,.43-.65,1.26,1.26,0,0,0-1.83.88,4.78,4.78,0,0,1-.32.64c-.28.6-.57,1.19-.94,2-.09-.79-.15-1.35-.22-1.92l.62.29V56.49L48,56.7ZM21,72c-.34.45-.62.88-1,1.26a.74.74,0,0,0-.08,1.07,3.44,3.44,0,0,1,.6,2.37,3.44,3.44,0,0,0,.09,1.06c.12.44-.25,1.06.44,1.29.47.16.94.3,1.42.45a.72.72,0,0,0,.21,0c.57-.05.74.26.78.77a1.27,1.27,0,0,0,.26.83c.59.46,1.26.83,2,1.3L25.6,81l4.1-1.15c-.48-1.06-.57-2.11-1.59-2.65-.16-.08-.24-.37-.32-.58a4.51,4.51,0,0,0-.49-1.45,14.37,14.37,0,0,0-2.15-2A1.24,1.24,0,0,1,24.53,72a1.28,1.28,0,0,0-.17-.8c-.72-1-1.48-2-2.23-3-1.09.5-1.42.74-1.63,1.44a4.17,4.17,0,0,1-2.05,2.84s0,0-.06.13C19.37,73,20.05,72.09,21,72Zm70.63-2.28c-.38.85-.67,1.54-1,2.21a1.53,1.53,0,0,1-.55.69A3.86,3.86,0,0,0,88,76.26a1.26,1.26,0,0,1-.66,1.23c-1.31.63-1.58,1.88-1.92,3.2a4.73,4.73,0,0,1,1-.13,2,2,0,0,1,.86.25c1,.59,1,.63,1.86-.11a1.14,1.14,0,0,1,1.48-.2c.2.12.45.18.64.31.7.48,1.28.23,1.93-.31a12.12,12.12,0,0,1-1.73-.56,10.79,10.79,0,0,1-1.46-1.08l.12-.21c.67.32,1.33.66,2,1,.19.09.48.21.62.13a.67.67,0,0,0,.2-.59c-.09-.46.15-.6.5-.7s.85-.25,1.35-.41l-.81-1.11.53-.48-.71-.8,1-.53-1.07-1.25.08-.13,1.27.51c.64-.93.23-1.87.13-2.79,0-.1-.23-.22-.38-.27C93.66,70.9,92.48,70.85,91.61,69.75ZM60,67.72c-.15-.32-.21-.67-.4-.79a4.62,4.62,0,0,0-1.74-.82,3.11,3.11,0,0,0-2,.35,1.6,1.6,0,0,0-.31,2c.52,1.11,1.08,2.21,1.66,3.29.29.53.77.51,1.08,0A11.24,11.24,0,0,0,59,70.58C59.34,69.64,59.68,68.68,60,67.72Zm1,5a4.48,4.48,0,0,0,.2.44,1.82,1.82,0,0,1,.32,2,.6.6,0,0,0,.11.56c.61.59,1.26,1.15,1.9,1.72.16-.68.32-1.39.49-2.1.21-.91-.44-1.34-1-1.89A2,2,0,0,0,61,72.75ZM33.4,58.59a6,6,0,0,1,.8,1.35c.27,1.12.23,1.13,1.42,1.11l1.08,0h2l.06-.19c-.61-.56-1.13-1.35-1.85-1.61A19.18,19.18,0,0,0,33.4,58.59ZM71.65,46.84c.95,1.18,1.78,2.2,2.62,3.22a.36.36,0,0,0,.25.11L77,50C75.91,47.72,74,47.18,71.65,46.84Zm13.1,29.9c.35-1.06,1.2-1.72.94-2.89-1.89.62-4,.45-5.4,2.34C81.79,76.22,83.34,75.32,84.75,76.74ZM62.16,51.07c.54,0,1.18.27,1.4.06a4.14,4.14,0,0,0,1-1.73c.39-1.28-.83-2-1.2-3.13-.36.54-1.31.8-.87,1.58a2.27,2.27,0,0,1-.07,2.51A6.31,6.31,0,0,0,62.16,51.07ZM33.77,65.77c1.35.23,2.42.44,3.5.58.19,0,.48-.19.6-.38s0-.42-.16-.6-.48-.59-.66-.92a2.34,2.34,0,0,0-2.75-1.14C35,64.22,35.12,65.06,33.77,65.77Zm48-7.41c-1.47,0-2.7.11-3.69,1-.13.12-.33.29-.33.43,0,.73.1,1.46.17,2.26l2.33-.21c-1.16-1-1.27-1.37-.87-2.81l1,1.17ZM37.1,48.61c.13.71.23,1.34.37,2a.43.43,0,0,0,.36.22c.94-.1,1.88-.24,2.87-.37l-.27-1.82A16.06,16.06,0,0,1,37.1,48.61Zm15.58,26.3.8.24.35-2c-.37.28-.57.44-.78.58a4,4,0,0,1-1.18.76,2,2,0,0,0-1.6,2.09C51.68,76.81,52.35,76.87,52.68,74.91ZM78.85,46.57l1.09-1c-1.48-.64-2.85-1.36-4.47-.74.79,1.3,1.24,1.62,2.21,1.55l-.23-1.51.13-.06Zm-43,5.94c-.58-1.16-1.34-1.78-2.55-1.58-.3.76-.5,1.36.37,2S35.09,52.52,35.88,52.51Zm-5.7,23.77,1.9-.85c-.6-.5-1.1-1-1.65-1.36-.21-.15-.72-.23-.79-.13a1.23,1.23,0,0,0-.24.93A8.73,8.73,0,0,0,30.18,76.28ZM33.45,49l.27.07c.19-.43.63-.93.53-1.26A8.1,8.1,0,0,0,33.08,46c-.18.55-1.07.52-.68,1.24S33.1,48.37,33.45,49Zm13.18,6.26-2.5.85c.49.49.88,1.18,1.21,1.16C46.45,57.14,46.8,56.51,46.63,55.22ZM40.73,48l.1.18c.71-.3,1.41-.65,2.14-.9s.87-.59.65-1.21C42,45.85,41.44,47,40.73,48ZM12.83,66.38l-.45.75.86.69c.25-.2.47-.37.68-.55s.44-.41.67-.62c-1.73-1.26-1.82-1.39-2.39-.83ZM79.5,64.24a2.06,2.06,0,0,0-2,2.63C79.33,65.49,79.51,65.26,79.5,64.24Zm-43-20-1.62,1.19c.53.44,1,.81,1.41,1.15a.64.64,0,0,0,.49,0c.08,0,.13-.27.11-.41C36.79,45.56,36.66,45,36.5,44.19ZM21.91,67.83l.09-.15-1.5-2-.78,1.74Zm7.8-18c-.56.79-.23,1.69-.28,2.54a.69.69,0,0,0,.32.56.72.72,0,0,0,.6-.24.77.77,0,0,0,.1-.6C30.23,51.31,30,50.58,29.71,49.79Zm51.92-.54,1.14-2.34c-.9.28-1.72.38-1.92,1.2C80.78,48.38,81.29,48.78,81.63,49.25ZM65.51,58.84l1.83-2.13-.15-.2-1.2.18.64.56-.07.1L65.08,57Zm3.88-8c-.28-1.66-.4-1.82-1.47-2C67.9,50.42,68,50.52,69.39,50.89ZM81,52.53l1.22-.61c-.44-.81-.89-1.43-1.91-1.27ZM56.69,41.93c.82.8,2,.8,3.31.8-.34-.42-.56-.95-.8-1A20.24,20.24,0,0,0,56.69,41.93Zm9.84,8.85c.1-1.39,0-1.47-.94-1.68C65.34,50.21,65.46,50.43,66.53,50.78Zm-8.21,3c-1.49.57-1.49.58-1.16,1.61,0,.11.17.29.23.29a.55.55,0,0,0,.38-.23C58,55,58.11,54.47,58.32,53.8ZM46.71,51.55l.72-1.93-1.68.59ZM68.24,74l.23-.09-1.11-2.5C67.06,72.34,67.33,73,68.24,74Zm-40.6-1.53-.2,0,.77,2.65.31,0a2.73,2.73,0,0,0,0-1A16.94,16.94,0,0,0,27.64,72.43ZM102.7,78.8l-.2-.07-1,1.46.78,1ZM59.43,51.31l.16,0,.88-1.65-1.24-.18ZM16.6,79.92c0-.57,0-.7-1.06-1.6A1.17,1.17,0,0,0,16.6,79.92ZM55.75,49.76l-1.48,1.35,1.24.4ZM30.5,59.56H28.66l.57,1Zm37.71-1.47,1.38.87.12-.14-.89-1.5ZM88.63,70l-1.36-.26.86,1.56ZM42.7,55.25l.12-.07-.2-1.72-.87.68ZM93.21,67.83l-1.14,1.56C92.57,69,93.55,69,93.21,67.83ZM72.73,64c-.63.26-1.39-.3-1.59.74C71.7,64.67,72.33,64.92,72.73,64Zm-2.24-6.81.12-.11L69.9,55.7l-.71.6ZM27.74,69.59,26.66,70l1.63.85ZM14,70.7c-.94,0-1,.08-.7.78l.88,0ZM12,76.46l1.2-.2,0-.22L12,75.51Zm2.86-.11L14.4,78C15.37,77.4,15.37,77.4,14.83,76.35ZM92.14,64.16l1.78.81C93.76,64.1,93.55,64,92.14,64.16ZM12,73.72h.76L11.9,72.6ZM33.92,59.89c-1.08.25-1.17.37-.88,1.12Zm67.54,4.42-.09.2a6.8,6.8,0,0,0,1,.67c.13.07.38-.11.57-.18l-.25-.3ZM26.72,65.57H25.56l.93,1ZM64,52.9v.15l1.36.62-.13-.9ZM86.64,73.8l1.1-.42-.6-.92Zm-19-32.27,1.32.31C68.19,41,68.09,41,67.68,41.53Zm5.2,7.1L72,48.9l.86,1ZM46.45,75.14l.79-1-.79-.26Zm1.87,1.29c.37-.33,1-.57.47-1.22ZM11.17,70.25l1.32-.41-.78-.63ZM58.65,85.72l.07-.12-1.1-.81-.2.69ZM10.27,78.5l.23,0,.32-.61-.73-.45-.19.12Zm52.4,6.75-.43-.91-.57,1.42ZM54.2,56.07l-.52,1,1-.06Zm-9.43-15-.17.24a3.68,3.68,0,0,0,.58.39s.21-.25.38-.46ZM14.61,83.19l-.13.17c.41.81.41.81,1.13.73Zm88.5-10.49c.22-.6,0-.88-.68-1ZM58,48.4l-.78-.84C57,48.36,57.1,48.46,58,48.4ZM13.42,63.25V63l-.78-.16c.08.17.11.42.24.49S13.23,63.27,13.42,63.25Z"/><path class="d" d="M21,72c-.93.06-1.61,1-2.59.6,0-.08,0-.12.06-.13a4.17,4.17,0,0,0,2.05-2.84c.21-.7.54-.94,1.63-1.44.75,1,1.51,2,2.23,3a1.28,1.28,0,0,1,.17.8,1.24,1.24,0,0,0,.62,1.23,14.37,14.37,0,0,1,2.15,2,4.51,4.51,0,0,1,.49,1.45c.08.21.16.5.32.58,1,.54,1.11,1.59,1.59,2.65L25.6,81l.13,1.41c-.73-.47-1.4-.84-2-1.3a1.27,1.27,0,0,1-.26-.83c0-.51-.21-.82-.78-.77a.72.72,0,0,1-.21,0c-.48-.15-.95-.29-1.42-.45-.69-.23-.32-.85-.44-1.29a3.44,3.44,0,0,1-.09-1.06,3.44,3.44,0,0,0-.6-2.37A.74.74,0,0,1,20,73.29C20.36,72.91,20.64,72.48,21,72Z"/><path class="d" d="M91.61,69.75c.87,1.1,2,1.15,3.13,1.45.15,0,.37.17.38.27.1.92.51,1.86-.13,2.79l-1.27-.51-.08.13,1.07,1.25-1,.53.71.8-.53.48.81,1.11c-.5.16-.92.29-1.35.41s-.59.24-.5.7a.67.67,0,0,1-.2.59c-.14.08-.43,0-.62-.13-.68-.31-1.34-.65-2-1l-.12.21a10.79,10.79,0,0,0,1.46,1.08,12.12,12.12,0,0,0,1.73.56c-.65.54-1.23.79-1.93.31-.19-.13-.44-.19-.64-.31a1.14,1.14,0,0,0-1.48.2c-.88.74-.89.7-1.86.11a2,2,0,0,0-.86-.25,4.73,4.73,0,0,0-1,.13c.34-1.32.61-2.57,1.92-3.2A1.26,1.26,0,0,0,88,76.26a3.86,3.86,0,0,1,2.09-3.61A1.53,1.53,0,0,0,90.6,72C90.94,71.29,91.23,70.6,91.61,69.75Z"/><path class="d" d="M48.57,57.74l.22,1.92c.37-.78.66-1.37.94-2a4.78,4.78,0,0,0,.32-.64,1.26,1.26,0,0,1,1.83-.88,4.07,4.07,0,0,1-.43.65,1,1,0,0,0,0,1.59c.73.79,1.43,1.62,2.13,2.42L49.81,63l0,.2c.85.18,1.64.65,2.58.11s1-.46,1.29.57c.08.25.15.5.26.85l-1.9.74a.23.23,0,0,1-.2,0A10.85,10.85,0,0,1,50.1,64.1c-.46-.5-.64-1.34-1.61-.61.3-1.61,1.69-2.12,2.57-3.11a1.92,1.92,0,0,0-2.33-.5c-1.14.55-1.34.45-2.17-.53-.3-.36-.61-.71-.92-1.06l0-.24,2.93-.29Z"/><path class="d" d="M60,67.72c-.36,1-.7,1.92-1.08,2.86a11.24,11.24,0,0,1-.64,1.18c-.31.52-.79.54-1.08,0-.58-1.08-1.14-2.18-1.66-3.29a1.6,1.6,0,0,1,.31-2,3.11,3.11,0,0,1,2-.35,4.62,4.62,0,0,1,1.74.82C59.83,67.05,59.89,67.4,60,67.72Z"/><path class="d" d="M64.05,63l-1.16-2.1-.77-1.44c1-.61,1.07-.58,1.85.07a5.24,5.24,0,0,1,1.48,1.94,8.76,8.76,0,0,0,1.32,1.61H64.15Z"/><path class="d" d="M61,72.75a2,2,0,0,1,2,.71c.54.55,1.19,1,1,1.89-.17.71-.33,1.42-.49,2.1-.64-.57-1.29-1.13-1.9-1.72a.6.6,0,0,1-.11-.56,1.82,1.82,0,0,0-.32-2A4.48,4.48,0,0,1,61,72.75Z"/><path class="d" d="M33.4,58.59a19.18,19.18,0,0,1,3.52.64c.72.26,1.24,1.05,1.85,1.61l-.06.19h-2l-1.08,0c-1.19,0-1.15,0-1.42-1.11A6,6,0,0,0,33.4,58.59Z"/><path class="d" d="M71.65,46.84c2.31.34,4.26.88,5.3,3.18l-2.43.15a.36.36,0,0,1-.25-.11C73.43,49,72.6,48,71.65,46.84Z"/><path class="d" d="M84.75,76.74c-1.41-1.42-3-.52-4.46-.55,1.37-1.89,3.51-1.72,5.4-2.34C86,75,85.1,75.68,84.75,76.74Z"/><path class="d" d="M62.16,51.07a6.31,6.31,0,0,1,.3-.71,2.27,2.27,0,0,0,.07-2.51c-.44-.78.51-1,.87-1.58.37,1.09,1.59,1.85,1.2,3.13a4.14,4.14,0,0,1-1,1.73C63.34,51.34,62.7,51.11,62.16,51.07Z"/><path class="d" d="M33.77,65.77c1.35-.71,1.23-1.55.53-2.46a2.34,2.34,0,0,1,2.75,1.14c.18.33.46.6.66.92s.23.47.16.6-.41.41-.6.38C36.19,66.21,35.12,66,33.77,65.77Z"/><path class="d" d="M64.05,63l.1.08,1.3,1.51c-1.2.67-1.2.67-2.47-.37-.47.23-.95.64-1.42.63s-.72-.54-1.11-.86a13,13,0,0,1,.95-1.22c.08-.08.48,0,.62.18a9.44,9.44,0,0,0,.87,1L62.55,62Z"/><path class="d" d="M81.73,58.36l-1.42,1.85-1-1.17c-.4,1.44-.29,1.8.87,2.81l-2.33.21c-.07-.8-.14-1.53-.17-2.26,0-.14.2-.31.33-.43C79,58.47,80.26,58.39,81.73,58.36Z"/><path class="d" d="M37.1,48.61a16.06,16.06,0,0,0,3.33,0l.27,1.82c-1,.13-1.93.27-2.87.37a.43.43,0,0,1-.36-.22C37.33,50,37.23,49.32,37.1,48.61Z"/><path class="d" d="M52.68,74.91c-.33,2-1,1.9-2.41,1.63a2,2,0,0,1,1.6-2.09,4,4,0,0,0,1.18-.76c.21-.14.41-.3.78-.58l-.35,2Z"/><path class="d" d="M78.85,46.57l-1.27-1.8-.13.06.23,1.51c-1,.07-1.42-.25-2.21-1.55,1.62-.62,3,.1,4.47.74Z"/><path class="d" d="M35.88,52.51c-.79,0-1.2,1-2.18.37s-.67-1.19-.37-2C34.54,50.73,35.3,51.35,35.88,52.51Z"/><path class="d" d="M30.18,76.28a8.73,8.73,0,0,1-.78-1.41,1.23,1.23,0,0,1,.24-.93c.07-.1.58,0,.79.13.55.39,1.05.86,1.65,1.36Z"/><path class="d" d="M33.45,49c-.35-.59-.73-1.16-1.05-1.76s.5-.69.68-1.24a8.1,8.1,0,0,1,1.17,1.81c.1.33-.34.83-.53,1.26Z"/><path class="d" d="M46.63,55.22c.17,1.29-.18,1.92-1.29,2-.33,0-.72-.67-1.21-1.16Z"/><path class="d" d="M40.73,48c.71-1,1.31-2.17,2.89-1.93.22.62,0,1-.65,1.21s-1.43.6-2.14.9Z"/><path class="d" d="M12.83,66.38l-.63-.56c.57-.56.66-.43,2.39.83-.23.21-.44.42-.67.62s-.43.35-.68.55l-.86-.69Z"/><path class="d" d="M79.5,64.24c0,1-.17,1.25-2,2.63A2.06,2.06,0,0,1,79.5,64.24Z"/><path class="d" d="M36.5,44.19c.16.77.29,1.37.39,2,0,.14,0,.38-.11.41a.64.64,0,0,1-.49,0c-.45-.34-.88-.71-1.41-1.15Z"/><path class="d" d="M21.91,67.83l-2.19-.45.78-1.74,1.5,2Z"/><path class="d" d="M29.71,49.79c.26.79.52,1.52.74,2.26a.77.77,0,0,1-.1.6.72.72,0,0,1-.6.24.69.69,0,0,1-.32-.56C29.48,51.48,29.15,50.58,29.71,49.79Z"/><path class="d" d="M81.63,49.25c-.34-.47-.85-.87-.78-1.14.2-.82,1-.92,1.92-1.2Z"/><path class="d" d="M65.51,58.84,65.08,57l1.48.31.07-.1L66,56.69l1.2-.18.15.2Z"/><path class="d" d="M69.39,50.89c-1.42-.37-1.49-.47-1.47-2C69,49.07,69.11,49.23,69.39,50.89Z"/><path class="d" d="M81,52.53l-.69-1.88c1-.16,1.47.46,1.91,1.27Z"/><path class="d" d="M56.69,41.93a20.24,20.24,0,0,1,2.51-.16c.24,0,.46.54.8,1C58.65,42.73,57.51,42.73,56.69,41.93Z"/><path class="d" d="M66.53,50.78c-1.07-.35-1.19-.57-.94-1.68C66.58,49.31,66.63,49.39,66.53,50.78Z"/><path class="d" d="M58.32,53.8c-.21.67-.36,1.18-.55,1.67a.55.55,0,0,1-.38.23c-.06,0-.19-.18-.23-.29C56.83,54.38,56.83,54.37,58.32,53.8Z"/><path class="d" d="M48.6,57.76,48,56.7l1.2-.21V58l-.62-.29Z"/><path class="d" d="M46.71,51.55l-1-1.34,1.68-.59Z"/><path class="d" d="M68.24,74c-.91-.94-1.18-1.62-.88-2.59l1.11,2.5Z"/><path class="d" d="M27.64,72.43a16.94,16.94,0,0,1,.86,1.7,2.73,2.73,0,0,1,0,1l-.31,0-.77-2.65Z"/><path class="d" d="M102.7,78.8l-.41,2.38-.78-1,1-1.46Z"/><path class="d" d="M59.43,51.31l-.2-1.81,1.24.18-.88,1.65Z"/><path class="d" d="M16.6,79.92a1.17,1.17,0,0,1-1.06-1.6C16.57,79.22,16.65,79.35,16.6,79.92Z"/><path class="d" d="M55.75,49.76l-.24,1.75-1.24-.4Z"/><path class="d" d="M30.5,59.56l-1.27,1-.57-1Z"/><path class="d" d="M68.21,58.09l.61-.77.89,1.5-.12.14Z"/><path class="d" d="M88.63,70l-.5,1.3-.86-1.56Z"/><path class="d" d="M42.7,55.25l-1-1.11.87-.68.2,1.72Z"/><path class="d" d="M93.21,67.83c.34,1.18-.64,1.18-1.14,1.56Z"/><path class="d" d="M72.73,64c-.4.92-1,.67-1.59.74C71.34,63.7,72.1,64.26,72.73,64Z"/><path class="d" d="M70.49,57.19l-1.3-.89.71-.6.71,1.38Z"/><path class="d" d="M27.74,69.59l.55,1.24L26.66,70Z"/><path class="d" d="M14,70.7l.18.74-.88,0C13.05,70.78,13.09,70.74,14,70.7Z"/><path class="d" d="M12,76.46v-.95L13.2,76l0,.22Z"/><path class="d" d="M14.83,76.35c.54,1.05.54,1.05-.43,1.6Z"/><path class="d" d="M92.14,64.16c1.41-.16,1.62-.06,1.78.81Z"/><path class="d" d="M12,73.72,11.9,72.6l.85,1.12Z"/><path class="d" d="M33.92,59.89,33,61C32.75,60.26,32.84,60.14,33.92,59.89Z"/><path class="d" d="M101.46,64.31l1.24.39.25.3c-.19.07-.44.25-.57.18a6.8,6.8,0,0,1-1-.67Z"/><path class="d" d="M26.72,65.57l-.23,1-.93-1Z"/><path class="d" d="M64,52.9l1.22-.13.13.9L64,53.05Z"/><path class="d" d="M86.64,73.8l.5-1.34.6.92Z"/><path class="d" d="M67.68,41.53c.41-.51.51-.49,1.32.31Z"/><path class="d" d="M72.88,48.63v1.25l-.86-1Z"/><path class="d" d="M46.45,75.14V73.83l.79.26Z"/><path class="d" d="M48.32,76.43l.47-1.22C49.36,75.86,48.69,76.1,48.32,76.43Z"/><path class="d" d="M11.17,70.25l.54-1,.78.63Z"/><path class="d" d="M58.65,85.72l-1.23-.24.2-.69,1.1.81Z"/><path class="d" d="M10.27,78.5l-.37-1,.19-.12.73.45-.32.61Z"/><path class="d" d="M62.67,85.25l-1,.51.57-1.42Z"/><path class="d" d="M54.2,56.07l.49.93-1,.06Z"/><path class="d" d="M44.77,41.1l.79.17c-.17.21-.34.48-.38.46a3.68,3.68,0,0,1-.58-.39Z"/><path class="d" d="M14.61,83.19l1,.9c-.72.08-.72.08-1.13-.73Z"/><path class="d" d="M103.11,72.7l-.68-1C103.13,71.82,103.33,72.1,103.11,72.7Z"/><path class="d" d="M58,48.4c-.89.06-1,0-.78-.84Z"/><path class="d" d="M13.42,63.25c-.19,0-.42.12-.55,0s-.16-.32-.24-.49l.78.16Z"/></g></g></svg>